<?xml version="1.0" standalone="no"?><!DOCTYPE svg PUBLIC "-//W3C//DTD SVG 1.1//EN" "http://www.w3.org/Graphics/SVG/1.1/DTD/svg11.dtd"><svg t="1673517076667" class="icon" viewBox="0 0 1024 1024" version="1.1" xmlns="http://www.w3.org/2000/svg" p-id="8186" xmlns:xlink="http://www.w3.org/1999/xlink" width="200" height="200"><path d="M954.290157 804.132649h-50.765081v-301.297884c0-203.404329-155.980995-370.983155-354.667563-389.657628V38.233527a36.857513 36.857513 0 0 0-73.715026 0v104.42962c0 0.982867 0.491434 1.818304 0.540577 2.752028-0.049143 0.982867-0.540577 1.818304-0.540577 2.752028 0 20.345347 16.512166 36.857513 36.857513 36.857513a318.154053 318.154053 0 0 1 317.810049 317.810049v301.297884H194.239094v-301.297884a317.564333 317.564333 0 0 1 143.547728-265.374094 36.857513 36.857513 0 0 0-40.641552-61.527475 391.230215 391.230215 0 0 0-176.621202 326.901569v301.297884H69.709843a36.857513 36.857513 0 0 0 0 73.715026h884.580314a36.857513 36.857513 0 0 0 0-73.715026z" fill="#FF4031" p-id="8187"></path><path d="M658.643759 398.552575m-47.669051 0a47.66905 47.66905 0 1 0 95.338101 0 47.66905 47.66905 0 1 0-95.338101 0Z" fill="#FF4031" p-id="8188"></path><path d="M631.123482 948.90896H392.876518a36.857513 36.857513 0 0 0 0 73.715026h238.246964a36.857513 36.857513 0 0 0 0-73.715026z" fill="#FF4031" p-id="8189"></path></svg>